<?xml version="1.0" encoding="UTF-8"?>
<svg id="Layer_1" data-name="Layer 1" xmlns="http://www.w3.org/2000/svg" xmlns:xlink="http://www.w3.org/1999/xlink" version="1.1" viewBox="0 0 400 50">
  <defs>
    <style>
      .cls-1 {
        fill: url(#White_Black);
      }

      .cls-1, .cls-2, .cls-3, .cls-4, .cls-5, .cls-6 {
        stroke-miterlimit: 10;
      }

      .cls-1, .cls-2, .cls-4 {
        stroke: #231f20;
        stroke-width: 0px;
      }

      .cls-7 {
        font-family: SwedenSans-Regular, 'Sweden Sans';
        font-size: 20px;
      }

      .cls-7, .cls-8 {
        fill: #231f20;
      }

      .cls-8 {
        stroke-width: 0px;
      }

      .cls-2 {
        fill: url(#linear-gradient);
      }

      .cls-3 {
        fill: #febe4b;
      }

      .cls-3, .cls-5, .cls-6 {
        stroke: #010101;
        stroke-width: .2px;
      }

      .cls-4 {
        fill: url(#radial-gradient);
      }

      .cls-5 {
        fill: #d8bfdc;
      }

      .cls-6 {
        fill: #92cb7c;
      }
    </style>
    <radialGradient id="radial-gradient" cx="201.3" cy="-20.7" fx="201.3" fy="-20.7" r="20.8" gradientTransform="translate(178.1 225) rotate(-91.2) scale(1 .9)" gradientUnits="userSpaceOnUse">
      <stop offset=".6" stop-color="#d4be94"/>
      <stop offset=".7" stop-color="#aa9271"/>
      <stop offset=".8" stop-color="#82684f"/>
      <stop offset=".9" stop-color="#6a4e3a"/>
      <stop offset=".9" stop-color="#614533"/>
    </radialGradient>
    <linearGradient id="White_Black" data-name="White, Black" x1="188" y1="-10.7" x2="188" y2="-10.7" gradientTransform="translate(175.1 225.4) rotate(-90)" gradientUnits="userSpaceOnUse">
      <stop offset="0" stop-color="#fff"/>
      <stop offset="1" stop-color="#231f20"/>
    </linearGradient>
    <linearGradient id="linear-gradient" x1="151.6" y1="124.5" x2="163" y2="124.5" gradientTransform="translate(164.9 256.3) rotate(-134) scale(1 1.2)" gradientUnits="userSpaceOnUse">
      <stop offset="0" stop-color="#d4be94"/>
      <stop offset="1" stop-color="#614534"/>
    </linearGradient>
  </defs>
  <g>
    <g>
      <path class="cls-4" d="M167.9,6.9c-.1-.4-1.1-.3-2.2-.4-1.7-.2-2.6-.8-3.8-1.2-2.6-.9-5.1-.7-8.7-.4-2.7.3-4.1.4-5.7,1-3.4,1.3-5.4,3.8-7.7,6.7-1.7,2.1-2.7,3.3-3.5,5.2-1.7,4-1.2,7.7-.9,9.9.2,1.7.7,4.8,2.7,8.1,4.3,7,11.7,8.8,12.6,9,4.4,1,8.1.2,9.9-.3,1.2-.3,2.4-.6,3.8-1.2.1,0,.6-.3,1.4-.7,1.3-.7,2.6-1.4,5-2.9.3-.2.5-.3.6-.4.9-1.2-.9-3.9-1.4-4.6-1.2-1.8-2.6-2.7-3-3-.5-.3-2.6-1.6-3.7-.9-.1,0-.5.3-.7.7-.1.3,0,.6,0,1,0,.7-.2,1.3-.4,1.6-.2.4-.6,1-1.7,1.6-2.5,1.3-4.9,1.3-5.2,1.3-2.2,0-5.4.1-8.4-1.9-4.8-3.2-5.4-8.7-5.5-9.7-.5-4.9,1.8-8.5,3-10.4.9-1.4,3.7-5.7,8.8-7.2.4-.1,4.4-1.2,7.7-.5,1.4.3,2.9.2,4.2.5.3,0,1,.3,1.7,0,.5-.2,1-.7,1-1Z"/>
      <path class="cls-1" d="M164.4,37.4"/>
      <path class="cls-2" d="M163.3,31.2c.9-.9,3.4.3,5.6,2.5,2.2,2.3,3.2,4.8,2.3,5.7-.9.9-3.4-.3-5.6-2.5-2.2-2.3-3.2-4.8-2.3-5.7Z"/>
    </g>
    <g>
      <path class="cls-5" d="M158,9.9c.3-.4,1.5.5,2.7,0,1.1-.4,1.4-1.7,1.7-1.6.3.1-.4,1.7.3,2.5.6.7,2.1.4,2.1.6,0,.2-1.9.3-2.3,1.2-.4,1,1.4,2.6,1.2,2.8-.2.2-1.5-1.4-2.8-1.2-1.1.2-1.7,1.6-2,1.4-.3-.2.7-1.9.1-2.4-.5-.5-2.4.6-2.5.4,0-.1,1.8-.8,1.9-2,0-.8-.8-1.4-.5-1.7Z"/>
      <ellipse class="cls-8" cx="160.9" cy="11.9" rx=".6" ry=".9"/>
    </g>
    <g>
      <path class="cls-6" d="M153.9,11.8c.6.2-.3,1.9.6,3.2.8,1.2,2.4,1.4,2.3,1.7,0,.4-2.1-.1-2.9.8-.8.9,0,2.6-.3,2.7-.3,0-.7-2.2-1.9-2.5-1.3-.3-2.8,2.3-3.1,2.1-.3-.2,1.4-2.1.8-3.6-.5-1.3-2.3-1.7-2.1-2.1.1-.4,2.4.4,2.9-.3.5-.8-1.2-2.8-1-2.9.2-.1,1.4,2,2.8,1.9,1,0,1.5-1.2,1.9-1Z"/>
      <ellipse class="cls-8" cx="152.1" cy="15.7" rx=".8" ry="1.1"/>
    </g>
    <g>
      <g>
        <path class="cls-5" d="M164.7,34c0-.1.4.1.7,0,.3-.1.4-.4.4-.4,0,0-.1.4,0,.6.2.2.5,0,.5.2,0,0-.5,0-.6.3,0,.3.4.6.3.7,0,0-.4-.3-.7-.3-.3,0-.4.4-.5.4,0,0,.2-.5,0-.6-.1-.1-.6.1-.6.1,0,0,.4-.2.5-.5,0-.2-.2-.3-.1-.4Z"/>
        <ellipse class="cls-8" cx="165.4" cy="34.5" rx=".2" ry=".2"/>
      </g>
      <g>
        <path class="cls-6" d="M166.6,31.5c.1,0,0,.4.1.7.2.2.5.3.5.3,0,0-.4,0-.6.2-.2.2,0,.5,0,.5,0,0-.1-.5-.4-.5-.3,0-.6.5-.6.4,0,0,.3-.4.2-.7,0-.3-.5-.4-.4-.4,0,0,.5,0,.6,0,.1-.2-.2-.6-.2-.6,0,0,.3.4.6.4.2,0,.3-.2.4-.2Z"/>
        <ellipse class="cls-8" cx="166.2" cy="32.3" rx=".2" ry=".2"/>
      </g>
      <g>
        <path class="cls-5" d="M167,36.6c0-.1.4.1.7,0,.3-.1.4-.4.4-.4,0,0-.1.4,0,.6.2.2.5,0,.5.2,0,0-.5,0-.6.3,0,.3.4.6.3.7,0,0-.4-.3-.7-.3-.3,0-.4.4-.5.4,0,0,.2-.5,0-.6-.1-.1-.6.1-.6.1,0,0,.4-.2.5-.5,0-.2-.2-.3-.1-.4Z"/>
        <ellipse class="cls-8" cx="167.7" cy="37.1" rx=".2" ry=".2"/>
      </g>
      <g>
        <path class="cls-3" d="M168,35.8c0,.1-.4-.1-.7,0-.3.1-.4.4-.4.4,0,0,.1-.4,0-.6-.2-.2-.5,0-.5-.2,0,0,.5,0,.6-.3,0-.3-.4-.6-.3-.7,0,0,.4.3.7.3.3,0,.4-.4.5-.4,0,0-.2.5,0,.6.1.1.6-.1.6-.1,0,0-.4.2-.5.5,0,.2.2.3.1.4Z"/>
        <ellipse class="cls-8" cx="167.3" cy="35.3" rx=".2" ry=".2"/>
      </g>
      <g>
        <path class="cls-3" d="M170,36.3c0,.1-.4-.1-.7,0-.3.1-.4.4-.4.4,0,0,.1-.4,0-.6-.2-.2-.5,0-.5-.2,0,0,.5,0,.6-.3,0-.3-.4-.6-.3-.7,0,0,.4.3.7.3.3,0,.4-.4.5-.4,0,0-.2.5,0,.6.1.1.6-.1.6-.1,0,0-.4.2-.5.5,0,.2.2.3.1.4Z"/>
        <ellipse class="cls-8" cx="169.2" cy="35.8" rx=".2" ry=".2"/>
      </g>
      <g>
        <path class="cls-6" d="M171.2,35.9c.1,0,0,.4.1.7.2.2.5.3.5.3,0,0-.4,0-.6.2-.2.2,0,.5,0,.5,0,0-.1-.5-.4-.5-.3,0-.6.5-.6.4,0,0,.3-.4.2-.7,0-.3-.5-.4-.4-.4,0,0,.5,0,.6,0,.1-.2-.2-.6-.2-.6,0,0,.3.4.6.4.2,0,.3-.2.4-.2Z"/>
        <ellipse class="cls-8" cx="170.9" cy="36.7" rx=".2" ry=".2"/>
      </g>
      <g>
        <path class="cls-5" d="M168,32.4c0-.1.4.1.7,0,.3-.1.4-.4.4-.4,0,0-.1.4,0,.6.2.2.5,0,.5.2,0,0-.5,0-.6.3,0,.3.4.6.3.7,0,0-.4-.3-.7-.3-.3,0-.4.4-.5.4,0,0,.2-.5,0-.6-.1-.1-.6.1-.6.1,0,0,.4-.2.5-.5,0-.2-.2-.3-.1-.4Z"/>
        <ellipse class="cls-8" cx="168.7" cy="32.9" rx=".2" ry=".2"/>
      </g>
      <g>
        <path class="cls-3" d="M168.1,30.5c0,.1-.4-.1-.7,0-.3.1-.4.4-.4.4,0,0,.1-.4,0-.6-.2-.2-.5,0-.5-.2,0,0,.5,0,.6-.3,0-.3-.4-.6-.3-.7,0,0,.4.3.7.3.3,0,.4-.4.5-.4,0,0-.2.5,0,.6.1.1.6-.1.6-.1,0,0-.4.2-.5.5,0,.2.2.3.1.4Z"/>
        <ellipse class="cls-8" cx="167.4" cy="30" rx=".2" ry=".2"/>
      </g>
      <g>
        <path class="cls-5" d="M173,34c0-.1.4.1.7,0,.3-.1.4-.4.4-.4,0,0-.1.4,0,.6.2.2.5,0,.5.2,0,0-.5,0-.6.3,0,.3.4.6.3.7,0,0-.4-.3-.7-.3-.3,0-.4.4-.5.4,0,0,.2-.5,0-.6-.1-.1-.6.1-.6.1,0,0,.4-.2.5-.5,0-.2-.2-.3-.1-.4Z"/>
        <ellipse class="cls-8" cx="173.8" cy="34.5" rx=".2" ry=".2"/>
      </g>
      <g>
        <path class="cls-3" d="M172.1,32.8c0,.1-.4-.1-.7,0-.3.1-.4.4-.4.4,0,0,.1-.4,0-.6-.2-.2-.5,0-.5-.2,0,0,.5,0,.6-.3,0-.3-.4-.6-.3-.7,0,0,.4.3.7.3.3,0,.4-.4.5-.4,0,0-.2.5,0,.6.1.1.6-.1.6-.1,0,0-.4.2-.5.5,0,.2.2.3.1.4Z"/>
        <ellipse class="cls-8" cx="171.4" cy="32.3" rx=".2" ry=".2"/>
      </g>
      <g>
        <path class="cls-6" d="M171.6,33.5c.1,0,0,.4.1.7.2.2.5.3.5.3,0,0-.4,0-.6.2-.2.2,0,.5,0,.5,0,0-.1-.5-.4-.5-.3,0-.6.5-.6.4,0,0,.3-.4.2-.7,0-.3-.5-.4-.4-.4,0,0,.5,0,.6,0,.1-.2-.2-.6-.2-.6,0,0,.3.4.6.4.2,0,.3-.2.4-.2Z"/>
        <ellipse class="cls-8" cx="171.2" cy="34.3" rx=".2" ry=".2"/>
      </g>
    </g>
    <g>
      <g>
        <path class="cls-5" d="M173.5,31.3c0-.1.5.2,1,0,.4-.2.5-.6.6-.6.1,0-.2.6.1.9.2.3.8.1.8.2,0,0-.7,0-.8.4-.1.4.5,1,.5,1,0,0-.5-.5-1-.4-.4,0-.6.6-.7.5-.1,0,.2-.7,0-.9-.2-.2-.9.2-.9.2,0,0,.7-.3.7-.7,0-.3-.3-.5-.2-.6Z"/>
        <ellipse class="cls-8" cx="174.6" cy="32.1" rx=".2" ry=".3"/>
      </g>
      <g>
        <path class="cls-6" d="M175.1,28.2c.2,0,0,.6.2,1,.2.4.7.4.7.5,0,.1-.6,0-.9.3-.2.3,0,.8,0,.8,0,0-.2-.7-.6-.7-.4,0-.8.7-.9.6,0,0,.4-.6.2-1.1-.1-.4-.7-.5-.6-.6,0-.1.7.1.9-.1.2-.2-.4-.8-.3-.9,0,0,.4.6.8.6.3,0,.4-.4.6-.3Z"/>
        <ellipse class="cls-8" cx="174.5" cy="29.3" rx=".2" ry=".3"/>
      </g>
      <g>
        <path class="cls-5" d="M169.1,29.2c0-.1.5.2,1,0,.4-.2.5-.6.6-.6.1,0-.2.6.1.9.2.3.8.1.8.2,0,0-.7,0-.8.4-.1.4.5,1,.5,1,0,0-.5-.5-1-.4-.4,0-.6.6-.7.5-.1,0,.2-.7,0-.9-.2-.2-.9.2-.9.2,0,0,.7-.3.7-.7,0-.3-.3-.5-.2-.6Z"/>
        <ellipse class="cls-8" cx="170.1" cy="30" rx=".2" ry=".3"/>
      </g>
      <g>
        <path class="cls-6" d="M172.6,25.7c.2,0,0,.6.2,1,.2.4.7.4.7.5,0,.1-.6,0-.9.3-.2.3,0,.8,0,.8,0,0-.2-.7-.6-.7-.4,0-.8.7-.9.6,0,0,.4-.6.2-1.1-.1-.4-.7-.5-.6-.6,0-.1.7.1.9-.1.2-.2-.4-.8-.3-.9,0,0,.4.6.8.6.3,0,.4-.4.6-.3Z"/>
        <ellipse class="cls-8" cx="172.1" cy="26.9" rx=".2" ry=".3"/>
      </g>
      <g>
        <path class="cls-5" d="M172.1,23.2c0-.1.5.2,1,0,.4-.2.5-.6.6-.6.1,0-.2.6.1.9.2.3.8.1.8.2,0,0-.7,0-.8.4-.1.4.5,1,.5,1,0,0-.5-.5-1-.4-.4,0-.6.6-.7.5-.1,0,.2-.7,0-.9-.2-.2-.9.2-.9.2,0,0,.7-.3.7-.7,0-.3-.3-.5-.2-.6Z"/>
        <ellipse class="cls-8" cx="173.2" cy="23.9" rx=".2" ry=".3"/>
      </g>
      <g>
        <path class="cls-3" d="M177.3,27.3c0,.1-.5-.2-1,0-.4.2-.5.6-.6.6-.1,0,.2-.6-.1-.9-.2-.3-.8-.1-.8-.2,0,0,.7,0,.8-.4.1-.4-.5-1-.5-1,0,0,.5.5,1,.4.4,0,.6-.6.7-.5.1,0-.2.7,0,.9.2.2.9-.2.9-.2,0,0-.7.3-.7.7,0,.3.3.5.2.6Z"/>
        <ellipse class="cls-8" cx="176.2" cy="26.6" rx=".2" ry=".3"/>
      </g>
      <g>
        <path class="cls-6" d="M176.8,22.1c.2,0,0,.6.2,1,.2.4.7.4.7.5,0,.1-.6,0-.9.3-.2.3,0,.8,0,.8,0,0-.2-.7-.6-.7-.4,0-.8.7-.9.6,0,0,.4-.6.2-1.1-.1-.4-.7-.5-.6-.6,0-.1.7.1.9-.1.2-.2-.4-.8-.3-.9,0,0,.4.6.8.6.3,0,.4-.4.6-.3Z"/>
        <ellipse class="cls-8" cx="176.3" cy="23.2" rx=".2" ry=".3"/>
      </g>
      <g>
        <path class="cls-3" d="M169.9,27.6c0,.1-.5-.2-1,0-.4.2-.5.6-.6.6-.1,0,.2-.6-.1-.9-.2-.3-.8-.1-.8-.2,0,0,.7,0,.8-.4.1-.4-.5-1-.5-1,0,0,.5.5,1,.4.4,0,.6-.6.7-.5.1,0-.2.7,0,.9.2.2.9-.2.9-.2,0,0-.7.3-.7.7,0,.3.3.5.2.6Z"/>
        <ellipse class="cls-8" cx="168.9" cy="26.9" rx=".2" ry=".3"/>
      </g>
    </g>
    <g>
      <path class="cls-5" d="M167.2,21.1c.2-.2.9.3,1.6,0,.6-.3.8-1,1-1,.2,0-.2,1,.2,1.5.4.4,1.2.2,1.3.4,0,.1-1.1.2-1.3.7-.2.6.8,1.5.7,1.7-.1.1-.9-.8-1.7-.7-.7.1-1,.9-1.2.8-.2-.1.4-1.1,0-1.4-.3-.3-1.4.3-1.5.2,0,0,1.1-.5,1.1-1.2,0-.5-.5-.8-.3-1Z"/>
      <ellipse class="cls-8" cx="168.9" cy="22.3" rx=".4" ry=".5"/>
    </g>
    <g>
      <path class="cls-3" d="M168,19.3c-.2.2-.9-.3-1.6,0-.6.3-.8,1-1,1-.2,0,.2-1-.2-1.5-.4-.4-1.2-.2-1.3-.4,0-.1,1.1-.2,1.3-.7.2-.6-.8-1.5-.7-1.7.1-.1.9.8,1.7.7.7-.1,1-.9,1.2-.8.2.1-.4,1.1,0,1.4.3.3,1.4-.3,1.5-.2,0,0-1.1.5-1.1,1.2,0,.5.5.8.3,1Z"/>
      <ellipse class="cls-8" cx="166.3" cy="18.1" rx=".4" ry=".5"/>
    </g>
    <g>
      <path class="cls-6" d="M171.3,14.6c.3.1-.1.9.3,1.6.4.6,1.2.7,1.1.8,0,.2-1,0-1.4.4-.4.4,0,1.3-.1,1.3-.1,0-.3-1.1-.9-1.2-.6-.1-1.4,1.1-1.5,1-.1,0,.7-1,.4-1.7-.2-.6-1.1-.8-1-1,0-.2,1.2.2,1.4-.2.2-.4-.6-1.3-.5-1.4,0,0,.7,1,1.3.9.5,0,.7-.6.9-.5Z"/>
      <ellipse class="cls-8" cx="170.4" cy="16.5" rx=".4" ry=".5"/>
    </g>
    <g>
      <path class="cls-5" d="M172.3,17.9c.2-.2.9.3,1.6,0,.6-.3.8-1,1-1,.2,0-.2,1,.2,1.5.4.4,1.2.2,1.3.4,0,.1-1.1.2-1.3.7-.2.6.8,1.5.7,1.7-.1.1-.9-.8-1.7-.7-.7.1-1,.9-1.2.8-.2-.1.4-1.1,0-1.4-.3-.3-1.4.3-1.5.2,0,0,1.1-.5,1.1-1.2,0-.5-.5-.8-.3-1Z"/>
      <ellipse class="cls-8" cx="174" cy="19.1" rx=".4" ry=".5"/>
    </g>
    <g>
      <path class="cls-3" d="M169.4,13.1c-.2.2-.9-.3-1.6,0-.6.3-.8,1-1,1-.2,0,.2-1-.2-1.5-.4-.4-1.2-.2-1.3-.4,0-.1,1.1-.2,1.3-.7.2-.6-.8-1.5-.7-1.7.1-.1.9.8,1.7.7.7-.1,1-.9,1.2-.8.2.1-.4,1.1,0,1.4.3.3,1.4-.3,1.5-.2,0,0-1.1.5-1.1,1.2,0,.5.5.8.3,1Z"/>
      <ellipse class="cls-8" cx="167.7" cy="11.9" rx=".4" ry=".5"/>
    </g>
    <g>
      <path class="cls-3" d="M158,31.5c-.5.8-3-1-5.4,0-2.2.9-2.9,3.5-3.4,3.3-.6-.2.8-3.3-.5-4.9-1.3-1.5-4.2-.8-4.3-1.2,0-.5,3.8-.5,4.5-2.3.8-2-2.9-5.2-2.5-5.6.4-.4,2.9,2.8,5.6,2.3,2.3-.4,3.4-3.2,4-2.9.6.3-1.3,3.8-.3,4.8,1.1,1,4.8-1.1,4.9-.8.2.3-3.6,1.7-3.8,4-.2,1.7,1.5,2.8,1.1,3.4Z"/>
      <ellipse class="cls-8" cx="152.1" cy="27.5" rx="1.3" ry="1.8"/>
    </g>
  </g>
  <text class="cls-7" transform="translate(186.1 31.1)"><tspan x="0" y="0">heimdall</tspan></text>
</svg>
